<?xml version="1.0" encoding="UTF-8"?>
<svg version="1.1" xmlns="http://www.w3.org/2000/svg" width="152" height="157">
<path d="M0 0 C50.16 0 100.32 0 152 0 C152 51.81 152 103.62 152 157 C101.84 157 51.68 157 0 157 C0 105.19 0 53.38 0 0 Z " fill="#8B66A9" transform="translate(0,0)"/>
<path d="M0 0 C15.84 0 31.68 0 48 0 C44.5470042 1.7264979 41.62361218 2.72881704 37.9375 3.75 C26.56550603 7.22158514 17.48487732 11.93702383 11.5703125 22.5703125 C1.61327435 43.25031481 0.11750229 72.63713852 6.80078125 94.6328125 C11.26086908 107.15592556 17.07022213 114.90372584 29 121 C31.31 121.99 33.62 122.98 36 124 C36 134.56 36 145.12 36 156 C40.42841496 153.34295103 43.37806157 150.75794604 46.75 147 C47.26860596 146.43055664 47.78721191 145.86111328 48.3215332 145.27441406 C52.49175498 140.65749725 56.46284129 135.90038528 60.35546875 131.046875 C62 129 62 129 63 128 C64.96880882 127.87763609 66.94169983 127.82015253 68.9140625 127.7890625 C88.15325779 127.51798312 88.15325779 127.51798312 107 124 C108.00208496 123.73678955 108.00208496 123.73678955 109.02441406 123.46826172 C121.31205443 120.2182902 130.11108156 116.10452525 137 105 C143.72709499 93.41571439 144.49261155 79.56276104 144.33618164 66.48339844 C144.31242985 64.36875475 144.31567535 62.25537025 144.32226562 60.140625 C144.29054272 43.96629039 142.77721554 26.25505006 131 14 C123.04790611 6.17826831 111.63631496 3.33998929 101 1 C101 0.67 101 0.34 101 0 C117.83 0 134.66 0 152 0 C152 51.81 152 103.62 152 157 C101.84 157 51.68 157 0 157 C0 105.19 0 53.38 0 0 Z " fill="#F6F5F6" transform="translate(0,0)"/>
<path d="M0 0 C6.20180497 1.32169614 9.07698404 5.9318913 12.8125 10.8125 C13.36808594 11.53824219 13.92367187 12.26398437 14.49609375 13.01171875 C16.74238844 16.25071024 17.76890099 18.57865076 18.5 22.5 C17.57280602 26.96738916 15.27724146 27.98413962 11.8125 30.8125 C10.08872359 35.43947877 10.77103699 38.34589749 12.75 42.6875 C17.34310249 51.02360038 23.33964614 57.43882382 31.8125 61.8125 C32.67875 62.26625 33.545 62.72 34.4375 63.1875 C37.65910169 64.03528992 39.638553 63.82546181 42.8125 62.8125 C45.08127535 60.39369071 45.08127535 60.39369071 46.8125 57.8125 C49.91355177 56.26197411 52.3833527 56.54159023 55.8125 56.8125 C58.9453125 58.421875 58.9453125 58.421875 61.9375 60.5625 C62.93007812 61.25859375 63.92265625 61.9546875 64.9453125 62.671875 C73.52308091 69.07598548 73.52308091 69.07598548 74.25 73.4375 C73.45829189 79.54496254 69.43590857 83.43087568 64.875 87.3125 C60.2752756 89.56542624 57.19543131 89.54884058 52.296875 88.03515625 C39.17436504 82.99768999 26.2284604 75.24648434 15.8125 65.8125 C14.92304687 65.01585938 14.03359375 64.21921875 13.1171875 63.3984375 C2.87877212 53.73040738 -4.11353663 42.50809982 -10.3125 29.9375 C-10.70324707 29.16535156 -11.09399414 28.39320312 -11.49658203 27.59765625 C-13.97653429 22.3377666 -15.18945282 17.63136636 -14.1875 11.8125 C-12.796875 9.2890625 -12.796875 9.2890625 -10.9375 7.4375 C-10.33421875 6.81101562 -9.7309375 6.18453125 -9.109375 5.5390625 C-6.09603333 2.83195474 -3.97350842 1.01285509 0 0 Z " fill="#F5F5F6" transform="translate(42.1875,22.1875)"/>
<path d="M0 0 C12.71959212 -0.93679484 23.2681207 1.82523812 33.078125 10.203125 C33.71234375 10.79609375 34.3465625 11.3890625 35 12 C35.82757813 12.76570313 35.82757813 12.76570313 36.671875 13.546875 C44.47833723 21.6752532 48.19772399 32.78663301 48.0625 43.875 C48.05347656 44.84179688 48.04445312 45.80859375 48.03515625 46.8046875 C48.02355469 47.52914062 48.01195312 48.25359375 48 49 C46.68 49 45.36 49 44 49 C43.85304687 47.91203125 43.70609375 46.8240625 43.5546875 45.703125 C41.86388152 34.25163847 39.48199201 22.6758983 30 15 C29.41476563 14.49984375 28.82953125 13.9996875 28.2265625 13.484375 C20.06986837 6.84295606 11.2121424 5.46875144 1 4 C0.67 2.68 0.34 1.36 0 0 Z " fill="#F1F0F3" transform="translate(71,18)"/>
<path d="M0 0 C9.68776335 0.08479443 16.9434232 3.05644782 23.9453125 9.70703125 C30.03019876 16.49757922 31.57283248 22.71917183 31.17578125 31.7265625 C31.11777344 32.47679687 31.05976562 33.22703125 31 34 C29.68 33.67 28.36 33.34 27 33 C26.92523438 32.23816406 26.85046875 31.47632812 26.7734375 30.69140625 C25.63326393 21.73769026 23.08854931 15.78938716 16.4375 9.625 C11.19222849 7.14541711 5.67256146 6.11094676 0 5 C-0.5625 3.0625 -0.5625 3.0625 -1 1 C-0.67 0.67 -0.34 0.34 0 0 Z " fill="#F2F1F3" transform="translate(76,29)"/>
<path d="M0 0 C5.11734421 -0.63966803 8.10784269 0.70940153 12.23046875 3.515625 C14.87069633 5.73038544 15.95426575 7.73208047 17 11 C17.1875 14.875 17.1875 14.875 17 18 C15.35 17.67 13.7 17.34 12 17 C11.7525 15.741875 11.505 14.48375 11.25 13.1875 C10.56466165 10.50759072 10.18641252 9.20712503 8.3125 7.125 C5.29740541 5.65819723 2.24658104 4.81164526 -1 4 C-0.67 2.68 -0.34 1.36 0 0 Z " fill="#EDEBF0" transform="translate(79,41)"/>
</svg>
